
                <svg version="1.1" id="style17-svg" width="400" height="400" xmlns="http://www.w3.org/2000/svg" xmlns:xlink="http://www.w3.org/1999/xlink" x="0px" y="0px" viewBox="0 0 400 400" style="enable-background:new 0 0 400 400;" xml:space="preserve">
<style type="text/css">
	.st0{fill:#F7F2E7;}
	.st1{fill:#3E536C;}
	.st2{fill:#EE7843;}
	.st3{fill:#EA5152;}
	.st4{fill:#EA5151;}
	.st5{fill:#EE7845;}
	.st6{fill:#568885;}
	.st7{fill:#8EA85B;}
	.st8{fill:#8CA85C;}
	.st9{fill:#558883;}
	.st10{fill:#EE7844;}
	.st11{fill:#EA5252;}
	.st12{fill:#3D536C;}
	.st13{fill:#C8B579;}
	.st14{fill:#F5CA62;}
	.st15{fill:#F4CB63;}
	.st16{fill:#F5CC63;}
	.st17{fill:#FFFFFF;}
</style>
<g>
	<path class="st0" d="M30,49.3c-0.6-0.9,1.5-2.5-0.6-3c-2-0.5-4.2,1.2-4.3,3.2c-0.1,4,0,7.9-0.1,11.9c0,1,0.5,2.3-0.7,3.1
		c-0.4-0.5-0.7-1-0.7-1.6C23.5,57,23,51.2,23.9,45.5c0.2-0.4,0.4-0.6,0.7-0.9c3.9-1.2,8-0.5,12-0.6c7-0.2,6.2,0.5,6.4-6.4
		c0.1-3.9-0.5-7.9,0.5-11.7c0.2-0.3,0.4-0.6,0.8-0.8c4.2-1.2,8.4-0.4,12.7-0.5c5.6-0.1,5.6,0,5.6-5.7c0-3,0-6.1,0-9.1
		c0-1.3,0-2.6,1-3.7c0.4,0,0.8,0,1.2,0c-0.3,2.1,0.4,4.2-0.4,6.5c-0.7,2,2.1,1.8,2.7,1.3c2.6-2.2,5.4-1,8.1-1c48.2,0,96.4,0,144.6,0
		c34.2,0,68.4,0,102.6,0c2,0,4,0.1,6-0.5c1.5-0.4,2.8,0.1,3.2,1.8c-1.9,1.5-4.1,0.7-6.2,0.9c-2.5,0.2-5.1,0.1-7.6,0.1
		c-82,0-164.1,0-246.1,0c-2.9,0-3.7,0.8-4,3.7c-0.1,1.6,0,3.2-0.1,4.9c-0.1,3.8-0.9,4.7-4.7,4.8c-3.7,0.1-7.3,0.1-11,0
		c-2.4,0-3.2,1-3.2,3.3c0,3.9,0,7.7,0,11.6c-0.1,5.7-0.8,6.5-6.6,6.4C38.1,49.6,34,50.2,30,49.3z"></path>
	<path class="st1" d="M5,25.5C5,19,5,12.5,5,6c6.5,0,13,0,19.5,0c0.1,0.2,0.3,0.3,0.4,0.5c1,6.4,1.4,12.7-0.2,19.1
		c-0.7,0.7-1.6,0.9-2.5,0.9c-4.9,0.2-9.7,0.2-14.6,0C6.5,26.4,5.7,26.1,5,25.5z"></path>
	<path class="st2" d="M24.3,25.5c0-6.5,0.1-13,0.1-19.5C31,6,37.5,6,44,6c0.2,0.2,0.5,0.4,0.5,0.7c0.9,6,0.8,12,0,17.9
		c0,0.3-0.3,0.5-0.5,0.7l0,0.2c-0.6,0.6-1.4,0.9-2.2,0.9c-5.5,0-11,0.4-16.5-0.2C24.9,26,24.6,25.8,24.3,25.5z"></path>
	<path class="st3" d="M44,25.4c0-6.5,0-12.9,0-19.4c6.5,0,13,0,19.5,0c0,5.6-0.1,11.3,0,16.9c0,2-0.6,2.6-2.6,2.5
		C55.3,25.3,49.6,25.4,44,25.4z"></path>
	<path class="st4" d="M356,25.4c-5.6,0-11.3-0.1-16.9,0c-2,0-2.6-0.5-2.6-2.5c0.1-5.6,0-11.3,0-16.9c6.5,0,13,0,19.5,0
		c0.3,0.3,0.6,0.6,0.6,1c0.7,5.8,0.7,11.7,0,17.5C356.6,24.9,356.3,25.2,356,25.4z"></path>
	<path class="st5" d="M356,25.4c0-6.5,0-13,0-19.5c6.5,0,13,0,19.5,0c0.5,0.5,0.9,1.2,0.9,1.9c0.1,5.7,0.6,11.5-0.3,17.2
		c-0.2,0.4-0.5,0.7-0.8,0.9c-6.4,0.7-12.9,1.4-19.3-0.3L356,25.4z"></path>
	<path class="st1" d="M375.6,25.5c0-6.5-0.1-13-0.1-19.5c6,0,12,0.1,18,0c1.3,0,1.6,0.3,1.6,1.6c-0.1,6,0,12,0,18
		c-0.3,0.3-0.6,0.6-1,0.6c-5.8,0.7-11.6,0.6-17.4,0C376.2,26.1,375.9,25.8,375.6,25.5z"></path>
	<path class="st6" d="M5,25.5c6.5,0,12.9,0,19.4,0c0.1,0,0.2,0,0.3,0c0.7,0.9,0.8,2,0.9,3.1c0,4.3,0,8.7,0,13c0,1.2-0.1,2.4-1,3.4
		l-0.1-0.1c-0.4,0.2,0.2,0.1-0.2,0.2C17.8,46.6,11.4,46.8,5,45C5,38.5,5,32,5,25.5z"></path>
	<path class="st6" d="M375.6,25.5c6.5,0,12.9,0,19.4,0c0,6.5,0,13,0,19.5c-0.4,0.3-0.8,0.7-1.3,0.7c-5.6,0.5-11.3,0.5-16.9,0
		c-0.5,0-0.9-0.4-1.3-0.8l-0.1,0.1c-0.2-0.4-0.1,0.1-0.2-0.2c-1.4-6.4-1.4-12.9,0-19.3L375.6,25.5z"></path>
	<path class="st7" d="M5,45c6.5,0,13,0,19.5-0.1c0,6.5,0,13-0.1,19.5c-6.5,0-12.9,0-19.4,0.1C5,58,5,51.5,5,45z"></path>
	<path class="st8" d="M375.5,44.9c6.5,0,13,0,19.5,0c0,6.5,0,13,0,19.5c-5.6,0-11.1-0.1-16.7,0.1c-2.3,0.1-2.9-0.7-2.8-2.9
		C375.6,56.1,375.5,50.5,375.5,44.9z"></path>
	<path class="st7" d="M5,337.5c5.6,0,11.1,0.1,16.7-0.1c2.3-0.1,2.9,0.7,2.8,2.9c-0.1,5.6,0,11.1,0,16.7c-2.9,1.5-16.5,1.5-19.5,0
		C5,350.5,5,344,5,337.5z"></path>
	<path class="st7" d="M375.6,357c0-5.6,0.1-11.1-0.1-16.7c-0.1-2.2,0.5-3,2.8-2.9c5.6,0.2,11.1,0.1,16.7,0.1c0,6.5,0,13,0,19.5
		c-0.3,0.3-0.6,0.6-1,0.6c-5.9,0.6-11.8,0.8-17.7-0.1C376,357.5,375.8,357.2,375.6,357z"></path>
	<path class="st6" d="M5,357c6.5,0,13,0,19.5,0c0,0,0.1-0.1,0.1-0.1c0.4,0.5,0.8,1,0.8,1.6c0.2,5.8,0.7,11.7-0.3,17.5
		c-0.2,0.4-0.4,0.7-0.8,0.9c-5.9,1.2-11.8,0.5-17.7,0.4c-0.6,0-1.1-0.4-1.6-0.8C5,370,5,363.5,5,357z"></path>
	<path class="st9" d="M375.6,357c6.5,0,13,0,19.5,0c0,6.5,0,13,0,19.5c-0.5,0.5-1.2,0.9-1.9,0.9c-5.7,0.1-11.5,0.6-17.2-0.3
		c-0.4-0.2-0.7-0.5-0.9-0.8C374.4,369.8,373.6,363.4,375.6,357L375.6,357z"></path>
	<path class="st1" d="M5,376.5c6.5,0,12.9,0,19.4,0c1,0.7,1.1,1.7,1.1,2.7c0.1,4.7,0.1,9.3,0,14c0,1-0.3,2-1,2.8c-6,0-12-0.1-18,0
		c-1.3,0-1.6-0.3-1.6-1.6C5,388.5,5,382.5,5,376.5z"></path>
	<path class="st10" d="M24.5,396c0-6.5-0.1-13-0.1-19.5c0.1,0,0.2,0,0.3,0c0.3-0.3,0.6-0.7,1-0.7c5.9-0.6,11.7-0.7,17.6,0.1
		c0.3,0,0.5,0.3,0.8,0.5l0,0.2c1.5,2.9,1.5,16.5,0,19.4C37.5,396,31,396,24.5,396z"></path>
	<path class="st11" d="M44,396c0-6.5,0-12.9,0-19.4c5.7,0,11.3,0.1,17-0.1c1.9,0,2.6,0.5,2.6,2.5c-0.1,5.6-0.1,11.3-0.1,17
		C57,396,50.5,396,44,396z"></path>
	<path class="st3" d="M336.5,396c0-5.6,0.1-11.3,0-16.9c0-2,0.6-2.6,2.6-2.5c5.6,0.1,11.3,0,16.9,0.1c0.2,0.4,0.1-0.2,0.2,0.2
		c1.3,6.4,1.6,12.8-0.2,19.2C349.5,396,343,396,336.5,396z"></path>
	<path class="st5" d="M356,396c0-6.5,0-13,0-19.4c0,0,0-0.2,0-0.2c0.7-0.6,1.6-0.9,2.5-0.9c4.8-0.1,9.6-0.1,14.4,0
		c0.9,0,1.8,0.2,2.4,1l0.3,0c0.6,0.7,0.9,1.6,0.9,2.5c0.1,4.7,0.1,9.5,0,14.2c0,1-0.3,2-1,2.8C369,396,362.5,396,356,396z"></path>
	<path class="st12" d="M375.5,396c0-6.5,0.1-13,0.1-19.5c6.5,0,12.9,0,19.4,0c0,6-0.1,12,0,18c0,1.3-0.3,1.6-1.6,1.6
		C387.5,396,381.5,396,375.5,396z"></path>
	<path class="st13" d="M30,49.3c3.4-1.5,7-0.6,10.5-0.7c7.2-0.2,7.2,0,7.2-7.3c0-3.8,0.1-7.5,0-11.3c-0.1-2,0.7-2.7,2.7-2.7
		c4.6,0.1,9.1-0.1,13.7,0c2,0,2.7-0.7,2.6-2.6c-0.1-2.1,0-4.3,0-6.4c0.1-3.5,1-4.4,4.6-4.4c35.8,0,71.7,0,107.5,0
		c50.1,0,100.3,0,150.4,0c0.8,0,1.6,0.1,2.4,0.2c0,3.9,0.1,7.7,0,11.6c0,1.8,0.6,2.5,2.4,2.5c5-0.1,10,0.1,14.9-0.1
		c2.7-0.1,3.5,1,3.5,3.6c-0.1,5.2,0.1,10.4-0.1,15.5c-0.1,2.6,0.7,3.6,3.4,3.6c4.2-0.1,8.3-0.3,12.5,0.2c1.9,0.2,2.5,1,2.5,2.9
		c-0.1,5.4,0,10.8,0,16.1c0,92.5,0,185,0,277.5c0,6.1,0,6.1-6.1,6.1c-4,0-7.9,0.1-11.9-0.1c-2.1-0.1-2.9,0.5-2.8,2.7
		c0.1,4.4,0,8.7,0.1,13.1c0.1,2.6-1.1,3.7-3.7,3.6c-4.4-0.1-8.7,0.1-13.1-0.1c-2.5-0.1-3.5,0.6-3.4,3.2c0.2,3.8-0.1,7.7,0.1,11.6
		c0.1,2.7-0.7,3.6-3.5,3.6c-20-0.1-40-0.1-60-0.1c-64.8,0-129.6,0-194.4,0c-4.2,0-4.6-0.3-4.8-4.6c-0.1-4.4-0.2-8.7,0-13.1
		c0.1-2.5-0.8-3.1-3.2-3c-4.8,0.1-9.5,0-14.3,0.1c-1.8,0-2.7-0.4-2.6-2.6c0.2-5.2-0.1-10.3,0-15.5c0.1-2.4-0.8-3.2-3.2-3.1
		c-4.7,0.1-9.3,0-14-0.1c-1.6-2.5-0.9-5.4-0.8-8c0.4-8.2-0.6-16.4,0.1-24.6c0.4-4.2-0.2-8.5-0.2-12.8c-0.3-13.1,0.6-26.2,0.2-39.3
		c-0.3-10.8,0.1-21.5,0-32.2c-0.2-24.7-0.4-49.5-0.2-74.2c0.1-9.3-0.3-18.7-0.1-28c0.1-7.3,0.6-14.6,0.2-21.9
		c-0.7-15.2,0.4-30.4,0-45.6C29.2,58,28.8,53.6,30,49.3L30,49.3z"></path>
	<path class="st0" d="M30,49.3c0,2.9-0.1,5.9-0.1,8.8c0,95.3,0,190.6,0,285.8c0,1.7,0.1,3.4,0.1,5.2c-1.2-0.1-2-0.8-1.8-2
		c0.8-4.2-0.7-8.4,0.5-12.6c0.8-2.7-0.4-5.6-0.5-8.4c-0.2-3.9,0.5-7.7,0.6-11.5c0.1-4.6-0.4-9.3-0.5-13.9
		c-0.4-11.3,0.6-22.5,0.6-33.7c0-6.8-0.8-13.5-0.7-20.3c0.1-3.6,1-7,0.7-10.6c-0.6-7.1,0.2-14.1-0.1-21.2
		c-0.8-19.1-0.4-38.1-0.3-57.2c0-7.2,0.2-14.3,0-21.5c-0.2-8.5,0.3-17,0.5-25.5c0.1-6.8-1.1-13.5-0.6-20.3c0.7-8,0.6-16,0.6-24
		c0-2.6,0.1-5.2-0.5-7.9C27.6,55.3,28.5,52.2,30,49.3z"></path>
	<path class="st14" d="M375.4,25.5c0,6.5,0.1,13,0.1,19.6c-5.3,0-10.5-0.2-15.8,0c-2.8,0.1-3.9-0.6-3.8-3.7c0.2-5.2,0-10.5,0-15.8
		C362.4,25.5,368.9,25.5,375.4,25.5z"></path>
	<path class="st15" d="M44,376.4c-6.4,0-12.9,0.1-19.3,0.1c0-6.5-0.1-13-0.1-19.6c5.5,0,10.9,0.1,16.4,0c2.3-0.1,3.2,0.6,3.1,3.1
		C43.8,365.5,44,371,44,376.4z"></path>
	<path class="st14" d="M375.4,376.5c-6.4,0-12.9-0.1-19.3-0.1c0-5.5,0.1-10.9,0-16.4c-0.1-2.5,0.8-3.1,3.1-3c5.5,0.1,10.9,0,16.4,0
		C375.4,363.5,375.4,370,375.4,376.5z"></path>
	<path class="st16" d="M24.5,45c0-6.5,0.1-13,0.1-19.5c6.4,0,12.9,0.1,19.3,0.1c0,5.6-0.1,11.1,0,16.7c0,2.2-0.7,2.8-2.8,2.7
		C35.6,44.9,30.1,45,24.5,45z"></path>
	<path class="st17" d="M368.3,202.2c0,48.2,0,96.5,0,144.7c0,4,0,4-3.9,4.1c-4.7,0.1-9.3,0.3-14,0.4c-2.1,0-2.9,0.9-2.8,2.9
		c0.1,4.4-0.1,8.7,0.1,13.1c0.1,2.5-0.8,3.1-3.2,3c-4.6-0.2-9.1,0-13.7-0.1c-2.3-0.1-3,0.7-2.9,3c0.2,4.3,0,8.5,0.1,12.8
		c0,2-0.7,2.7-2.7,2.7c-3.8-0.1-7.5,0-11.3,0c-79.7,0-159.4,0-239.2,0c-0.8,0-1.6-0.1-2.4,0c-2.2,0.3-2.8-0.8-2.7-2.8
		c0.1-5,0-10,0.1-14.9c0-2.2-0.9-3.1-3.1-3c-4.9,0.1-9.7,0-14.6,0.1c-1.9,0-2.5-0.6-2.5-2.5c0.1-5.3,0-10.6,0.1-15.8
		c0-2-0.7-2.6-2.6-2.6c-4.2,0.1-8.3-0.1-12.5,0.1c-2.1,0.1-2.6-0.7-2.6-2.6c0.1-6.3,0-12.6,0-18.9c0-90.3,0-180.6-0.1-270.9
		c0-2.9,0.7-4,3.7-3.8c3.9,0.2,7.9,0,11.9,0c2.1,0,3-0.6,2.9-3.1c-0.3-5.3-0.1-10.6-0.3-15.8c-0.1-2.1,0.9-2.5,2.7-2.5
		c4.5,0.1,8.9-0.1,13.4,0.1c2.7,0.1,3.6-0.9,3.4-3.6c-0.2-2.7,0-5.5-0.1-8.2c0-1.4,0.5-1.8,2-1.8c83.6,0.1,167.2,0.1,250.7,0.1
		c1.1,0,2.3,0.2,3.3-0.1c3.4-1,3.8,0.7,3.6,3.4c-0.2,2.4,0,4.9,0,7.3c-0.1,2.5,0.8,3.7,3.5,3.6c4.8-0.2,9.5,0,14.3-0.1
		c2.2-0.1,3.1,0.5,3,2.9c-0.2,5.6,0,11.2-0.1,16.8c0,2.3,0.8,3.1,3.1,3c4.3-0.1,8.5,0,12.8-0.1c1.9,0,2.5,0.6,2.5,2.5
		c-0.1,4.2,0,8.3,0,12.5C368.3,112.6,368.3,157.4,368.3,202.2C368.3,202.2,368.3,202.2,368.3,202.2z"></path>
</g>
<g class="addsvg"><svg version="1.1" baseProfile="tiny" xmlns="http://www.w3.org/2000/svg" width="284" height="284" x="56.00000000000001" y="56.00000000000001" viewBox="0 0 284 284"><rect xmlns="http://www.w3.org/2000/svg" shape-rendering="optimizeSpeed" width="284" height="284" fill="#fff" x="0" y="0"></rect><rect shape-rendering="optimizeSpeed" fill="#000" x="10" y="10" width="9.203448275862069" height="9.203448275862069"></rect><rect shape-rendering="optimizeSpeed" fill="#000" x="19.10344827586207" y="10" width="9.203448275862069" height="9.203448275862069"></rect><rect shape-rendering="optimizeSpeed" fill="#000" x="28.20689655172414" y="10" width="9.203448275862069" height="9.203448275862069"></rect><rect shape-rendering="optimizeSpeed" fill="#000" x="37.310344827586206" y="10" width="9.203448275862069" height="9.203448275862069"></rect><rect shape-rendering="optimizeSpeed" fill="#000" x="46.41379310344828" y="10" width="9.203448275862069" height="9.203448275862069"></rect><rect shape-rendering="optimizeSpeed" fill="#000" x="55.51724137931035" y="10" width="9.203448275862069" height="9.203448275862069"></rect><rect shape-rendering="optimizeSpeed" fill="#000" x="64.62068965517241" y="10" width="9.203448275862069" height="9.203448275862069"></rect><rect shape-rendering="optimizeSpeed" fill="#000" x="101.0344827586207" y="10" width="9.203448275862069" height="9.203448275862069"></rect><rect shape-rendering="optimizeSpeed" fill="#000" x="128.34482758620692" y="10" width="9.203448275862069" height="9.203448275862069"></rect><rect shape-rendering="optimizeSpeed" fill="#000" x="137.44827586206895" y="10" width="9.203448275862069" height="9.203448275862069"></rect><rect shape-rendering="optimizeSpeed" fill="#000" x="146.55172413793105" y="10" width="9.203448275862069" height="9.203448275862069"></rect><rect shape-rendering="optimizeSpeed" fill="#000" x="173.86206896551724" y="10" width="9.203448275862069" height="9.203448275862069"></rect><rect shape-rendering="optimizeSpeed" fill="#000" x="182.96551724137933" y="10" width="9.203448275862069" height="9.203448275862069"></rect><rect shape-rendering="optimizeSpeed" fill="#000" x="210.27586206896552" y="10" width="9.203448275862069" height="9.203448275862069"></rect><rect shape-rendering="optimizeSpeed" fill="#000" x="219.3793103448276" y="10" width="9.203448275862069" height="9.203448275862069"></rect><rect shape-rendering="optimizeSpeed" fill="#000" x="228.48275862068965" y="10" width="9.203448275862069" height="9.203448275862069"></rect><rect shape-rendering="optimizeSpeed" fill="#000" x="237.58620689655174" y="10" width="9.203448275862069" height="9.203448275862069"></rect><rect shape-rendering="optimizeSpeed" fill="#000" x="246.6896551724138" y="10" width="9.203448275862069" height="9.203448275862069"></rect><rect shape-rendering="optimizeSpeed" fill="#000" x="255.79310344827587" y="10" width="9.203448275862069" height="9.203448275862069"></rect><rect shape-rendering="optimizeSpeed" fill="#000" x="264.8965517241379" y="10" width="9.203448275862069" height="9.203448275862069"></rect><rect shape-rendering="optimizeSpeed" fill="#000" x="10" y="19.10344827586207" width="9.203448275862069" height="9.203448275862069"></rect><rect shape-rendering="optimizeSpeed" fill="#000" x="64.62068965517241" y="19.10344827586207" width="9.203448275862069" height="9.203448275862069"></rect><rect shape-rendering="optimizeSpeed" fill="#000" x="91.93103448275862" y="19.10344827586207" width="9.203448275862069" height="9.203448275862069"></rect><rect shape-rendering="optimizeSpeed" fill="#000" x="137.44827586206895" y="19.10344827586207" width="9.203448275862069" height="9.203448275862069"></rect><rect shape-rendering="optimizeSpeed" fill="#000" x="146.55172413793105" y="19.10344827586207" width="9.203448275862069" height="9.203448275862069"></rect><rect shape-rendering="optimizeSpeed" fill="#000" x="155.6551724137931" y="19.10344827586207" width="9.203448275862069" height="9.203448275862069"></rect><rect shape-rendering="optimizeSpeed" fill="#000" x="164.75862068965517" y="19.10344827586207" width="9.203448275862069" height="9.203448275862069"></rect><rect shape-rendering="optimizeSpeed" fill="#000" x="173.86206896551724" y="19.10344827586207" width="9.203448275862069" height="9.203448275862069"></rect><rect shape-rendering="optimizeSpeed" fill="#000" x="182.96551724137933" y="19.10344827586207" width="9.203448275862069" height="9.203448275862069"></rect><rect shape-rendering="optimizeSpeed" fill="#000" x="192.0689655172414" y="19.10344827586207" width="9.203448275862069" height="9.203448275862069"></rect><rect shape-rendering="optimizeSpeed" fill="#000" x="210.27586206896552" y="19.10344827586207" width="9.203448275862069" height="9.203448275862069"></rect><rect shape-rendering="optimizeSpeed" fill="#000" x="264.8965517241379" y="19.10344827586207" width="9.203448275862069" height="9.203448275862069"></rect><rect shape-rendering="optimizeSpeed" fill="#000" x="10" y="28.20689655172414" width="9.203448275862069" height="9.203448275862069"></rect><rect shape-rendering="optimizeSpeed" fill="#000" x="28.20689655172414" y="28.20689655172414" width="9.203448275862069" height="9.203448275862069"></rect><rect shape-rendering="optimizeSpeed" fill="#000" x="37.310344827586206" y="28.20689655172414" width="9.203448275862069" height="9.203448275862069"></rect><rect shape-rendering="optimizeSpeed" fill="#000" x="46.41379310344828" y="28.20689655172414" width="9.203448275862069" height="9.203448275862069"></rect><rect shape-rendering="optimizeSpeed" fill="#000" x="64.62068965517241" y="28.20689655172414" width="9.203448275862069" height="9.203448275862069"></rect><rect shape-rendering="optimizeSpeed" fill="#000" x="82.82758620689656" y="28.20689655172414" width="9.203448275862069" height="9.203448275862069"></rect><rect shape-rendering="optimizeSpeed" fill="#000" x="110.13793103448276" y="28.20689655172414" width="9.203448275862069" height="9.203448275862069"></rect><rect shape-rendering="optimizeSpeed" fill="#000" x="146.55172413793105" y="28.20689655172414" width="9.203448275862069" height="9.203448275862069"></rect><rect shape-rendering="optimizeSpeed" fill="#000" x="155.6551724137931" y="28.20689655172414" width="9.203448275862069" height="9.203448275862069"></rect><rect shape-rendering="optimizeSpeed" fill="#000" x="173.86206896551724" y="28.20689655172414" width="9.203448275862069" height="9.203448275862069"></rect><rect shape-rendering="optimizeSpeed" fill="#000" x="182.96551724137933" y="28.20689655172414" width="9.203448275862069" height="9.203448275862069"></rect><rect shape-rendering="optimizeSpeed" fill="#000" x="210.27586206896552" y="28.20689655172414" width="9.203448275862069" height="9.203448275862069"></rect><rect shape-rendering="optimizeSpeed" fill="#000" x="228.48275862068965" y="28.20689655172414" width="9.203448275862069" height="9.203448275862069"></rect><rect shape-rendering="optimizeSpeed" fill="#000" x="237.58620689655174" y="28.20689655172414" width="9.203448275862069" height="9.203448275862069"></rect><rect shape-rendering="optimizeSpeed" fill="#000" x="246.6896551724138" y="28.20689655172414" width="9.203448275862069" height="9.203448275862069"></rect><rect shape-rendering="optimizeSpeed" fill="#000" x="264.8965517241379" y="28.20689655172414" width="9.203448275862069" height="9.203448275862069"></rect><rect shape-rendering="optimizeSpeed" fill="#000" x="10" y="37.310344827586206" width="9.203448275862069" height="9.203448275862069"></rect><rect shape-rendering="optimizeSpeed" fill="#000" x="28.20689655172414" y="37.310344827586206" width="9.203448275862069" height="9.203448275862069"></rect><rect shape-rendering="optimizeSpeed" fill="#000" x="37.310344827586206" y="37.310344827586206" width="9.203448275862069" height="9.203448275862069"></rect><rect shape-rendering="optimizeSpeed" fill="#000" x="46.41379310344828" y="37.310344827586206" width="9.203448275862069" height="9.203448275862069"></rect><rect shape-rendering="optimizeSpeed" fill="#000" x="64.62068965517241" y="37.310344827586206" width="9.203448275862069" height="9.203448275862069"></rect><rect shape-rendering="optimizeSpeed" fill="#000" x="91.93103448275862" y="37.310344827586206" width="9.203448275862069" height="9.203448275862069"></rect><rect shape-rendering="optimizeSpeed" fill="#000" x="119.24137931034483" y="37.310344827586206" width="9.203448275862069" height="9.203448275862069"></rect><rect shape-rendering="optimizeSpeed" fill="#000" x="137.44827586206895" y="37.310344827586206" width="9.203448275862069" height="9.203448275862069"></rect><rect shape-rendering="optimizeSpeed" fill="#000" x="146.55172413793105" y="37.310344827586206" width="9.203448275862069" height="9.203448275862069"></rect><rect shape-rendering="optimizeSpeed" fill="#000" x="173.86206896551724" y="37.310344827586206" width="9.203448275862069" height="9.203448275862069"></rect><rect shape-rendering="optimizeSpeed" fill="#000" x="210.27586206896552" y="37.310344827586206" width="9.203448275862069" height="9.203448275862069"></rect><rect shape-rendering="optimizeSpeed" fill="#000" x="228.48275862068965" y="37.310344827586206" width="9.203448275862069" height="9.203448275862069"></rect><rect shape-rendering="optimizeSpeed" fill="#000" x="237.58620689655174" y="37.310344827586206" width="9.203448275862069" height="9.203448275862069"></rect><rect shape-rendering="optimizeSpeed" fill="#000" x="246.6896551724138" y="37.310344827586206" width="9.203448275862069" height="9.203448275862069"></rect><rect shape-rendering="optimizeSpeed" fill="#000" x="264.8965517241379" y="37.310344827586206" width="9.203448275862069" height="9.203448275862069"></rect><rect shape-rendering="optimizeSpeed" fill="#000" x="10" y="46.41379310344828" width="9.203448275862069" height="9.203448275862069"></rect><rect shape-rendering="optimizeSpeed" fill="#000" x="28.20689655172414" y="46.41379310344828" width="9.203448275862069" height="9.203448275862069"></rect><rect shape-rendering="optimizeSpeed" fill="#000" x="37.310344827586206" y="46.41379310344828" width="9.203448275862069" height="9.203448275862069"></rect><rect shape-rendering="optimizeSpeed" fill="#000" x="46.41379310344828" y="46.41379310344828" width="9.203448275862069" height="9.203448275862069"></rect><rect shape-rendering="optimizeSpeed" fill="#000" x="64.62068965517241" y="46.41379310344828" width="9.203448275862069" height="9.203448275862069"></rect><rect shape-rendering="optimizeSpeed" fill="#000" x="91.93103448275862" y="46.41379310344828" width="9.203448275862069" height="9.203448275862069"></rect><rect shape-rendering="optimizeSpeed" fill="#000" x="119.24137931034483" y="46.41379310344828" width="9.203448275862069" height="9.203448275862069"></rect><rect shape-rendering="optimizeSpeed" fill="#000" x="128.34482758620692" y="46.41379310344828" width="9.203448275862069" height="9.203448275862069"></rect><rect shape-rendering="optimizeSpeed" fill="#000" x="137.44827586206895" y="46.41379310344828" width="9.203448275862069" height="9.203448275862069"></rect><rect shape-rendering="optimizeSpeed" fill="#000" x="146.55172413793105" y="46.41379310344828" width="9.203448275862069" height="9.203448275862069"></rect><rect shape-rendering="optimizeSpeed" fill="#000" x="173.86206896551724" y="46.41379310344828" width="9.203448275862069" height="9.203448275862069"></rect><rect shape-rendering="optimizeSpeed" fill="#000" x="182.96551724137933" y="46.41379310344828" width="9.203448275862069" height="9.203448275862069"></rect><rect shape-rendering="optimizeSpeed" fill="#000" x="210.27586206896552" y="46.41379310344828" width="9.203448275862069" height="9.203448275862069"></rect><rect shape-rendering="optimizeSpeed" fill="#000" x="228.48275862068965" y="46.41379310344828" width="9.203448275862069" height="9.203448275862069"></rect><rect shape-rendering="optimizeSpeed" fill="#000" x="237.58620689655174" y="46.41379310344828" width="9.203448275862069" height="9.203448275862069"></rect><rect shape-rendering="optimizeSpeed" fill="#000" x="246.6896551724138" y="46.41379310344828" width="9.203448275862069" height="9.203448275862069"></rect><rect shape-rendering="optimizeSpeed" fill="#000" x="264.8965517241379" y="46.41379310344828" width="9.203448275862069" height="9.203448275862069"></rect><rect shape-rendering="optimizeSpeed" fill="#000" x="10" y="55.51724137931035" width="9.203448275862069" height="9.203448275862069"></rect><rect shape-rendering="optimizeSpeed" fill="#000" x="64.62068965517241" y="55.51724137931035" width="9.203448275862069" height="9.203448275862069"></rect><rect shape-rendering="optimizeSpeed" fill="#000" x="101.0344827586207" y="55.51724137931035" width="9.203448275862069" height="9.203448275862069"></rect><rect shape-rendering="optimizeSpeed" fill="#000" x="110.13793103448276" y="55.51724137931035" width="9.203448275862069" height="9.203448275862069"></rect><rect shape-rendering="optimizeSpeed" fill="#000" x="119.24137931034483" y="55.51724137931035" width="9.203448275862069" height="9.203448275862069"></rect><rect shape-rendering="optimizeSpeed" fill="#000" x="128.34482758620692" y="55.51724137931035" width="9.203448275862069" height="9.203448275862069"></rect><rect shape-rendering="optimizeSpeed" fill="#000" x="137.44827586206895" y="55.51724137931035" width="9.203448275862069" height="9.203448275862069"></rect><rect shape-rendering="optimizeSpeed" fill="#000" x="146.55172413793105" y="55.51724137931035" width="9.203448275862069" height="9.203448275862069"></rect><rect shape-rendering="optimizeSpeed" fill="#000" x="164.75862068965517" y="55.51724137931035" width="9.203448275862069" height="9.203448275862069"></rect><rect shape-rendering="optimizeSpeed" fill="#000" x="173.86206896551724" y="55.51724137931035" width="9.203448275862069" height="9.203448275862069"></rect><rect shape-rendering="optimizeSpeed" fill="#000" x="182.96551724137933" y="55.51724137931035" width="9.203448275862069" height="9.203448275862069"></rect><rect shape-rendering="optimizeSpeed" fill="#000" x="192.0689655172414" y="55.51724137931035" width="9.203448275862069" height="9.203448275862069"></rect><rect shape-rendering="optimizeSpeed" fill="#000" x="210.27586206896552" y="55.51724137931035" width="9.203448275862069" height="9.203448275862069"></rect><rect shape-rendering="optimizeSpeed" fill="#000" x="264.8965517241379" y="55.51724137931035" width="9.203448275862069" height="9.203448275862069"></rect><rect shape-rendering="optimizeSpeed" fill="#000" x="10" y="64.62068965517241" width="9.203448275862069" height="9.203448275862069"></rect><rect shape-rendering="optimizeSpeed" fill="#000" x="19.10344827586207" y="64.62068965517241" width="9.203448275862069" height="9.203448275862069"></rect><rect shape-rendering="optimizeSpeed" fill="#000" x="28.20689655172414" y="64.62068965517241" width="9.203448275862069" height="9.203448275862069"></rect><rect shape-rendering="optimizeSpeed" fill="#000" x="37.310344827586206" y="64.62068965517241" width="9.203448275862069" height="9.203448275862069"></rect><rect shape-rendering="optimizeSpeed" fill="#000" x="46.41379310344828" y="64.62068965517241" width="9.203448275862069" height="9.203448275862069"></rect><rect shape-rendering="optimizeSpeed" fill="#000" x="55.51724137931035" y="64.62068965517241" width="9.203448275862069" height="9.203448275862069"></rect><rect shape-rendering="optimizeSpeed" fill="#000" x="64.62068965517241" y="64.62068965517241" width="9.203448275862069" height="9.203448275862069"></rect><rect shape-rendering="optimizeSpeed" fill="#000" x="82.82758620689656" y="64.62068965517241" width="9.203448275862069" height="9.203448275862069"></rect><rect shape-rendering="optimizeSpeed" fill="#000" x="101.0344827586207" y="64.62068965517241" width="9.203448275862069" height="9.203448275862069"></rect><rect shape-rendering="optimizeSpeed" fill="#000" x="119.24137931034483" y="64.62068965517241" width="9.203448275862069" height="9.203448275862069"></rect><rect shape-rendering="optimizeSpeed" fill="#000" x="137.44827586206895" y="64.62068965517241" width="9.203448275862069" height="9.203448275862069"></rect><rect shape-rendering="optimizeSpeed" fill="#000" x="155.6551724137931" y="64.62068965517241" width="9.203448275862069" height="9.203448275862069"></rect><rect shape-rendering="optimizeSpeed" fill="#000" x="173.86206896551724" y="64.62068965517241" width="9.203448275862069" height="9.203448275862069"></rect><rect shape-rendering="optimizeSpeed" fill="#000" x="192.0689655172414" y="64.62068965517241" width="9.203448275862069" height="9.203448275862069"></rect><rect shape-rendering="optimizeSpeed" fill="#000" x="210.27586206896552" y="64.62068965517241" width="9.203448275862069" height="9.203448275862069"></rect><rect shape-rendering="optimizeSpeed" fill="#000" x="219.3793103448276" y="64.62068965517241" width="9.203448275862069" height="9.203448275862069"></rect><rect shape-rendering="optimizeSpeed" fill="#000" x="228.48275862068965" y="64.62068965517241" width="9.203448275862069" height="9.203448275862069"></rect><rect shape-rendering="optimizeSpeed" fill="#000" x="237.58620689655174" y="64.62068965517241" width="9.203448275862069" height="9.203448275862069"></rect><rect shape-rendering="optimizeSpeed" fill="#000" x="246.6896551724138" y="64.62068965517241" width="9.203448275862069" height="9.203448275862069"></rect><rect shape-rendering="optimizeSpeed" fill="#000" x="255.79310344827587" y="64.62068965517241" width="9.203448275862069" height="9.203448275862069"></rect><rect shape-rendering="optimizeSpeed" fill="#000" x="264.8965517241379" y="64.62068965517241" width="9.203448275862069" height="9.203448275862069"></rect><rect shape-rendering="optimizeSpeed" fill="#000" x="82.82758620689656" y="73.72413793103448" width="9.203448275862069" height="9.203448275862069"></rect><rect shape-rendering="optimizeSpeed" fill="#000" x="110.13793103448276" y="73.72413793103448" width="9.203448275862069" height="9.203448275862069"></rect><rect shape-rendering="optimizeSpeed" fill="#000" x="128.34482758620692" y="73.72413793103448" width="9.203448275862069" height="9.203448275862069"></rect><rect shape-rendering="optimizeSpeed" fill="#000" x="137.44827586206895" y="73.72413793103448" width="9.203448275862069" height="9.203448275862069"></rect><rect shape-rendering="optimizeSpeed" fill="#000" x="155.6551724137931" y="73.72413793103448" width="9.203448275862069" height="9.203448275862069"></rect><rect shape-rendering="optimizeSpeed" fill="#000" x="164.75862068965517" y="73.72413793103448" width="9.203448275862069" height="9.203448275862069"></rect><rect shape-rendering="optimizeSpeed" fill="#000" x="173.86206896551724" y="73.72413793103448" width="9.203448275862069" height="9.203448275862069"></rect><rect shape-rendering="optimizeSpeed" fill="#000" x="10" y="82.82758620689656" width="9.203448275862069" height="9.203448275862069"></rect><rect shape-rendering="optimizeSpeed" fill="#000" x="19.10344827586207" y="82.82758620689656" width="9.203448275862069" height="9.203448275862069"></rect><rect shape-rendering="optimizeSpeed" fill="#000" x="28.20689655172414" y="82.82758620689656" width="9.203448275862069" height="9.203448275862069"></rect><rect shape-rendering="optimizeSpeed" fill="#000" x="46.41379310344828" y="82.82758620689656" width="9.203448275862069" height="9.203448275862069"></rect><rect shape-rendering="optimizeSpeed" fill="#000" x="55.51724137931035" y="82.82758620689656" width="9.203448275862069" height="9.203448275862069"></rect><rect shape-rendering="optimizeSpeed" fill="#000" x="64.62068965517241" y="82.82758620689656" width="9.203448275862069" height="9.203448275862069"></rect><rect shape-rendering="optimizeSpeed" fill="#000" x="73.72413793103448" y="82.82758620689656" width="9.203448275862069" height="9.203448275862069"></rect><rect shape-rendering="optimizeSpeed" fill="#000" x="82.82758620689656" y="82.82758620689656" width="9.203448275862069" height="9.203448275862069"></rect><rect shape-rendering="optimizeSpeed" fill="#000" x="119.24137931034483" y="82.82758620689656" width="9.203448275862069" height="9.203448275862069"></rect><rect shape-rendering="optimizeSpeed" fill="#000" x="128.34482758620692" y="82.82758620689656" width="9.203448275862069" height="9.203448275862069"></rect><rect shape-rendering="optimizeSpeed" fill="#000" x="137.44827586206895" y="82.82758620689656" width="9.203448275862069" height="9.203448275862069"></rect><rect shape-rendering="optimizeSpeed" fill="#000" x="146.55172413793105" y="82.82758620689656" width="9.203448275862069" height="9.203448275862069"></rect><rect shape-rendering="optimizeSpeed" fill="#000" x="155.6551724137931" y="82.82758620689656" width="9.203448275862069" height="9.203448275862069"></rect><rect shape-rendering="optimizeSpeed" fill="#000" x="164.75862068965517" y="82.82758620689656" width="9.203448275862069" height="9.203448275862069"></rect><rect shape-rendering="optimizeSpeed" fill="#000" x="173.86206896551724" y="82.82758620689656" width="9.203448275862069" height="9.203448275862069"></rect><rect shape-rendering="optimizeSpeed" fill="#000" x="192.0689655172414" y="82.82758620689656" width="9.203448275862069" height="9.203448275862069"></rect><rect shape-rendering="optimizeSpeed" fill="#000" x="201.17241379310346" y="82.82758620689656" width="9.203448275862069" height="9.203448275862069"></rect><rect shape-rendering="optimizeSpeed" fill="#000" x="210.27586206896552" y="82.82758620689656" width="9.203448275862069" height="9.203448275862069"></rect><rect shape-rendering="optimizeSpeed" fill="#000" x="246.6896551724138" y="82.82758620689656" width="9.203448275862069" height="9.203448275862069"></rect><rect shape-rendering="optimizeSpeed" fill="#000" x="10" y="91.93103448275862" width="9.203448275862069" height="9.203448275862069"></rect><rect shape-rendering="optimizeSpeed" fill="#000" x="28.20689655172414" y="91.93103448275862" width="9.203448275862069" height="9.203448275862069"></rect><rect shape-rendering="optimizeSpeed" fill="#000" x="46.41379310344828" y="91.93103448275862" width="9.203448275862069" height="9.203448275862069"></rect><rect shape-rendering="optimizeSpeed" fill="#000" x="73.72413793103448" y="91.93103448275862" width="9.203448275862069" height="9.203448275862069"></rect><rect shape-rendering="optimizeSpeed" fill="#000" x="82.82758620689656" y="91.93103448275862" width="9.203448275862069" height="9.203448275862069"></rect><rect shape-rendering="optimizeSpeed" fill="#000" x="91.93103448275862" y="91.93103448275862" width="9.203448275862069" height="9.203448275862069"></rect><rect shape-rendering="optimizeSpeed" fill="#000" x="110.13793103448276" y="91.93103448275862" width="9.203448275862069" height="9.203448275862069"></rect><rect shape-rendering="optimizeSpeed" fill="#000" x="119.24137931034483" y="91.93103448275862" width="9.203448275862069" height="9.203448275862069"></rect><rect shape-rendering="optimizeSpeed" fill="#000" x="182.96551724137933" y="91.93103448275862" width="9.203448275862069" height="9.203448275862069"></rect><rect shape-rendering="optimizeSpeed" fill="#000" x="192.0689655172414" y="91.93103448275862" width="9.203448275862069" height="9.203448275862069"></rect><rect shape-rendering="optimizeSpeed" fill="#000" x="201.17241379310346" y="91.93103448275862" width="9.203448275862069" height="9.203448275862069"></rect><rect shape-rendering="optimizeSpeed" fill="#000" x="210.27586206896552" y="91.93103448275862" width="9.203448275862069" height="9.203448275862069"></rect><rect shape-rendering="optimizeSpeed" fill="#000" x="237.58620689655174" y="91.93103448275862" width="9.203448275862069" height="9.203448275862069"></rect><rect shape-rendering="optimizeSpeed" fill="#000" x="264.8965517241379" y="91.93103448275862" width="9.203448275862069" height="9.203448275862069"></rect><rect shape-rendering="optimizeSpeed" fill="#000" x="19.10344827586207" y="101.0344827586207" width="9.203448275862069" height="9.203448275862069"></rect><rect shape-rendering="optimizeSpeed" fill="#000" x="28.20689655172414" y="101.0344827586207" width="9.203448275862069" height="9.203448275862069"></rect><rect shape-rendering="optimizeSpeed" fill="#000" x="37.310344827586206" y="101.0344827586207" width="9.203448275862069" height="9.203448275862069"></rect><rect shape-rendering="optimizeSpeed" fill="#000" x="64.62068965517241" y="101.0344827586207" width="9.203448275862069" height="9.203448275862069"></rect><rect shape-rendering="optimizeSpeed" fill="#000" x="82.82758620689656" y="101.0344827586207" width="9.203448275862069" height="9.203448275862069"></rect><rect shape-rendering="optimizeSpeed" fill="#000" x="101.0344827586207" y="101.0344827586207" width="9.203448275862069" height="9.203448275862069"></rect><rect shape-rendering="optimizeSpeed" fill="#000" x="110.13793103448276" y="101.0344827586207" width="9.203448275862069" height="9.203448275862069"></rect><rect shape-rendering="optimizeSpeed" fill="#000" x="119.24137931034483" y="101.0344827586207" width="9.203448275862069" height="9.203448275862069"></rect><rect shape-rendering="optimizeSpeed" fill="#000" x="128.34482758620692" y="101.0344827586207" width="9.203448275862069" height="9.203448275862069"></rect><rect shape-rendering="optimizeSpeed" fill="#000" x="155.6551724137931" y="101.0344827586207" width="9.203448275862069" height="9.203448275862069"></rect><rect shape-rendering="optimizeSpeed" fill="#000" x="192.0689655172414" y="101.0344827586207" width="9.203448275862069" height="9.203448275862069"></rect><rect shape-rendering="optimizeSpeed" fill="#000" x="201.17241379310346" y="101.0344827586207" width="9.203448275862069" height="9.203448275862069"></rect><rect shape-rendering="optimizeSpeed" fill="#000" x="219.3793103448276" y="101.0344827586207" width="9.203448275862069" height="9.203448275862069"></rect><rect shape-rendering="optimizeSpeed" fill="#000" x="246.6896551724138" y="101.0344827586207" width="9.203448275862069" height="9.203448275862069"></rect><rect shape-rendering="optimizeSpeed" fill="#000" x="255.79310344827587" y="101.0344827586207" width="9.203448275862069" height="9.203448275862069"></rect><rect shape-rendering="optimizeSpeed" fill="#000" x="264.8965517241379" y="101.0344827586207" width="9.203448275862069" height="9.203448275862069"></rect><rect shape-rendering="optimizeSpeed" fill="#000" x="28.20689655172414" y="110.13793103448276" width="9.203448275862069" height="9.203448275862069"></rect><rect shape-rendering="optimizeSpeed" fill="#000" x="73.72413793103448" y="110.13793103448276" width="9.203448275862069" height="9.203448275862069"></rect><rect shape-rendering="optimizeSpeed" fill="#000" x="82.82758620689656" y="110.13793103448276" width="9.203448275862069" height="9.203448275862069"></rect><rect shape-rendering="optimizeSpeed" fill="#000" x="91.93103448275862" y="110.13793103448276" width="9.203448275862069" height="9.203448275862069"></rect><rect shape-rendering="optimizeSpeed" fill="#000" x="101.0344827586207" y="110.13793103448276" width="9.203448275862069" height="9.203448275862069"></rect><rect shape-rendering="optimizeSpeed" fill="#000" x="119.24137931034483" y="110.13793103448276" width="9.203448275862069" height="9.203448275862069"></rect><rect shape-rendering="optimizeSpeed" fill="#000" x="128.34482758620692" y="110.13793103448276" width="9.203448275862069" height="9.203448275862069"></rect><rect shape-rendering="optimizeSpeed" fill="#000" x="137.44827586206895" y="110.13793103448276" width="9.203448275862069" height="9.203448275862069"></rect><rect shape-rendering="optimizeSpeed" fill="#000" x="164.75862068965517" y="110.13793103448276" width="9.203448275862069" height="9.203448275862069"></rect><rect shape-rendering="optimizeSpeed" fill="#000" x="173.86206896551724" y="110.13793103448276" width="9.203448275862069" height="9.203448275862069"></rect><rect shape-rendering="optimizeSpeed" fill="#000" x="201.17241379310346" y="110.13793103448276" width="9.203448275862069" height="9.203448275862069"></rect><rect shape-rendering="optimizeSpeed" fill="#000" x="210.27586206896552" y="110.13793103448276" width="9.203448275862069" height="9.203448275862069"></rect><rect shape-rendering="optimizeSpeed" fill="#000" x="228.48275862068965" y="110.13793103448276" width="9.203448275862069" height="9.203448275862069"></rect><rect shape-rendering="optimizeSpeed" fill="#000" x="237.58620689655174" y="110.13793103448276" width="9.203448275862069" height="9.203448275862069"></rect><rect shape-rendering="optimizeSpeed" fill="#000" x="255.79310344827587" y="110.13793103448276" width="9.203448275862069" height="9.203448275862069"></rect><rect shape-rendering="optimizeSpeed" fill="#000" x="19.10344827586207" y="119.24137931034483" width="9.203448275862069" height="9.203448275862069"></rect><rect shape-rendering="optimizeSpeed" fill="#000" x="46.41379310344828" y="119.24137931034483" width="9.203448275862069" height="9.203448275862069"></rect><rect shape-rendering="optimizeSpeed" fill="#000" x="64.62068965517241" y="119.24137931034483" width="9.203448275862069" height="9.203448275862069"></rect><rect shape-rendering="optimizeSpeed" fill="#000" x="82.82758620689656" y="119.24137931034483" width="9.203448275862069" height="9.203448275862069"></rect><rect shape-rendering="optimizeSpeed" fill="#000" x="101.0344827586207" y="119.24137931034483" width="9.203448275862069" height="9.203448275862069"></rect><rect shape-rendering="optimizeSpeed" fill="#000" x="110.13793103448276" y="119.24137931034483" width="9.203448275862069" height="9.203448275862069"></rect><rect shape-rendering="optimizeSpeed" fill="#000" x="137.44827586206895" y="119.24137931034483" width="9.203448275862069" height="9.203448275862069"></rect><rect shape-rendering="optimizeSpeed" fill="#000" x="201.17241379310346" y="119.24137931034483" width="9.203448275862069" height="9.203448275862069"></rect><rect shape-rendering="optimizeSpeed" fill="#000" x="210.27586206896552" y="119.24137931034483" width="9.203448275862069" height="9.203448275862069"></rect><rect shape-rendering="optimizeSpeed" fill="#000" x="228.48275862068965" y="119.24137931034483" width="9.203448275862069" height="9.203448275862069"></rect><rect shape-rendering="optimizeSpeed" fill="#000" x="237.58620689655174" y="119.24137931034483" width="9.203448275862069" height="9.203448275862069"></rect><rect shape-rendering="optimizeSpeed" fill="#000" x="255.79310344827587" y="119.24137931034483" width="9.203448275862069" height="9.203448275862069"></rect><rect shape-rendering="optimizeSpeed" fill="#000" x="264.8965517241379" y="119.24137931034483" width="9.203448275862069" height="9.203448275862069"></rect><rect shape-rendering="optimizeSpeed" fill="#000" x="10" y="128.34482758620692" width="9.203448275862069" height="9.203448275862069"></rect><rect shape-rendering="optimizeSpeed" fill="#000" x="19.10344827586207" y="128.34482758620692" width="9.203448275862069" height="9.203448275862069"></rect><rect shape-rendering="optimizeSpeed" fill="#000" x="28.20689655172414" y="128.34482758620692" width="9.203448275862069" height="9.203448275862069"></rect><rect shape-rendering="optimizeSpeed" fill="#000" x="55.51724137931035" y="128.34482758620692" width="9.203448275862069" height="9.203448275862069"></rect><rect shape-rendering="optimizeSpeed" fill="#000" x="82.82758620689656" y="128.34482758620692" width="9.203448275862069" height="9.203448275862069"></rect><rect shape-rendering="optimizeSpeed" fill="#000" x="101.0344827586207" y="128.34482758620692" width="9.203448275862069" height="9.203448275862069"></rect><rect shape-rendering="optimizeSpeed" fill="#000" x="110.13793103448276" y="128.34482758620692" width="9.203448275862069" height="9.203448275862069"></rect><rect shape-rendering="optimizeSpeed" fill="#000" x="155.6551724137931" y="128.34482758620692" width="9.203448275862069" height="9.203448275862069"></rect><rect shape-rendering="optimizeSpeed" fill="#000" x="164.75862068965517" y="128.34482758620692" width="9.203448275862069" height="9.203448275862069"></rect><rect shape-rendering="optimizeSpeed" fill="#000" x="182.96551724137933" y="128.34482758620692" width="9.203448275862069" height="9.203448275862069"></rect><rect shape-rendering="optimizeSpeed" fill="#000" x="192.0689655172414" y="128.34482758620692" width="9.203448275862069" height="9.203448275862069"></rect><rect shape-rendering="optimizeSpeed" fill="#000" x="201.17241379310346" y="128.34482758620692" width="9.203448275862069" height="9.203448275862069"></rect><rect shape-rendering="optimizeSpeed" fill="#000" x="210.27586206896552" y="128.34482758620692" width="9.203448275862069" height="9.203448275862069"></rect><rect shape-rendering="optimizeSpeed" fill="#000" x="237.58620689655174" y="128.34482758620692" width="9.203448275862069" height="9.203448275862069"></rect><rect shape-rendering="optimizeSpeed" fill="#000" x="246.6896551724138" y="128.34482758620692" width="9.203448275862069" height="9.203448275862069"></rect><rect shape-rendering="optimizeSpeed" fill="#000" x="264.8965517241379" y="128.34482758620692" width="9.203448275862069" height="9.203448275862069"></rect><rect shape-rendering="optimizeSpeed" fill="#000" x="10" y="137.44827586206895" width="9.203448275862069" height="9.203448275862069"></rect><rect shape-rendering="optimizeSpeed" fill="#000" x="28.20689655172414" y="137.44827586206895" width="9.203448275862069" height="9.203448275862069"></rect><rect shape-rendering="optimizeSpeed" fill="#000" x="64.62068965517241" y="137.44827586206895" width="9.203448275862069" height="9.203448275862069"></rect><rect shape-rendering="optimizeSpeed" fill="#000" x="82.82758620689656" y="137.44827586206895" width="9.203448275862069" height="9.203448275862069"></rect><rect shape-rendering="optimizeSpeed" fill="#000" x="91.93103448275862" y="137.44827586206895" width="9.203448275862069" height="9.203448275862069"></rect><rect shape-rendering="optimizeSpeed" fill="#000" x="101.0344827586207" y="137.44827586206895" width="9.203448275862069" height="9.203448275862069"></rect><rect shape-rendering="optimizeSpeed" fill="#000" x="128.34482758620692" y="137.44827586206895" width="9.203448275862069" height="9.203448275862069"></rect><rect shape-rendering="optimizeSpeed" fill="#000" x="164.75862068965517" y="137.44827586206895" width="9.203448275862069" height="9.203448275862069"></rect><rect shape-rendering="optimizeSpeed" fill="#000" x="201.17241379310346" y="137.44827586206895" width="9.203448275862069" height="9.203448275862069"></rect><rect shape-rendering="optimizeSpeed" fill="#000" x="255.79310344827587" y="137.44827586206895" width="9.203448275862069" height="9.203448275862069"></rect><rect shape-rendering="optimizeSpeed" fill="#000" x="264.8965517241379" y="137.44827586206895" width="9.203448275862069" height="9.203448275862069"></rect><rect shape-rendering="optimizeSpeed" fill="#000" x="10" y="146.55172413793105" width="9.203448275862069" height="9.203448275862069"></rect><rect shape-rendering="optimizeSpeed" fill="#000" x="46.41379310344828" y="146.55172413793105" width="9.203448275862069" height="9.203448275862069"></rect><rect shape-rendering="optimizeSpeed" fill="#000" x="101.0344827586207" y="146.55172413793105" width="9.203448275862069" height="9.203448275862069"></rect><rect shape-rendering="optimizeSpeed" fill="#000" x="110.13793103448276" y="146.55172413793105" width="9.203448275862069" height="9.203448275862069"></rect><rect shape-rendering="optimizeSpeed" fill="#000" x="155.6551724137931" y="146.55172413793105" width="9.203448275862069" height="9.203448275862069"></rect><rect shape-rendering="optimizeSpeed" fill="#000" x="164.75862068965517" y="146.55172413793105" width="9.203448275862069" height="9.203448275862069"></rect><rect shape-rendering="optimizeSpeed" fill="#000" x="173.86206896551724" y="146.55172413793105" width="9.203448275862069" height="9.203448275862069"></rect><rect shape-rendering="optimizeSpeed" fill="#000" x="182.96551724137933" y="146.55172413793105" width="9.203448275862069" height="9.203448275862069"></rect><rect shape-rendering="optimizeSpeed" fill="#000" x="201.17241379310346" y="146.55172413793105" width="9.203448275862069" height="9.203448275862069"></rect><rect shape-rendering="optimizeSpeed" fill="#000" x="228.48275862068965" y="146.55172413793105" width="9.203448275862069" height="9.203448275862069"></rect><rect shape-rendering="optimizeSpeed" fill="#000" x="237.58620689655174" y="146.55172413793105" width="9.203448275862069" height="9.203448275862069"></rect><rect shape-rendering="optimizeSpeed" fill="#000" x="255.79310344827587" y="146.55172413793105" width="9.203448275862069" height="9.203448275862069"></rect><rect shape-rendering="optimizeSpeed" fill="#000" x="28.20689655172414" y="155.6551724137931" width="9.203448275862069" height="9.203448275862069"></rect><rect shape-rendering="optimizeSpeed" fill="#000" x="55.51724137931035" y="155.6551724137931" width="9.203448275862069" height="9.203448275862069"></rect><rect shape-rendering="optimizeSpeed" fill="#000" x="64.62068965517241" y="155.6551724137931" width="9.203448275862069" height="9.203448275862069"></rect><rect shape-rendering="optimizeSpeed" fill="#000" x="73.72413793103448" y="155.6551724137931" width="9.203448275862069" height="9.203448275862069"></rect><rect shape-rendering="optimizeSpeed" fill="#000" x="91.93103448275862" y="155.6551724137931" width="9.203448275862069" height="9.203448275862069"></rect><rect shape-rendering="optimizeSpeed" fill="#000" x="101.0344827586207" y="155.6551724137931" width="9.203448275862069" height="9.203448275862069"></rect><rect shape-rendering="optimizeSpeed" fill="#000" x="119.24137931034483" y="155.6551724137931" width="9.203448275862069" height="9.203448275862069"></rect><rect shape-rendering="optimizeSpeed" fill="#000" x="146.55172413793105" y="155.6551724137931" width="9.203448275862069" height="9.203448275862069"></rect><rect shape-rendering="optimizeSpeed" fill="#000" x="155.6551724137931" y="155.6551724137931" width="9.203448275862069" height="9.203448275862069"></rect><rect shape-rendering="optimizeSpeed" fill="#000" x="164.75862068965517" y="155.6551724137931" width="9.203448275862069" height="9.203448275862069"></rect><rect shape-rendering="optimizeSpeed" fill="#000" x="201.17241379310346" y="155.6551724137931" width="9.203448275862069" height="9.203448275862069"></rect><rect shape-rendering="optimizeSpeed" fill="#000" x="210.27586206896552" y="155.6551724137931" width="9.203448275862069" height="9.203448275862069"></rect><rect shape-rendering="optimizeSpeed" fill="#000" x="255.79310344827587" y="155.6551724137931" width="9.203448275862069" height="9.203448275862069"></rect><rect shape-rendering="optimizeSpeed" fill="#000" x="264.8965517241379" y="155.6551724137931" width="9.203448275862069" height="9.203448275862069"></rect><rect shape-rendering="optimizeSpeed" fill="#000" x="19.10344827586207" y="164.75862068965517" width="9.203448275862069" height="9.203448275862069"></rect><rect shape-rendering="optimizeSpeed" fill="#000" x="28.20689655172414" y="164.75862068965517" width="9.203448275862069" height="9.203448275862069"></rect><rect shape-rendering="optimizeSpeed" fill="#000" x="55.51724137931035" y="164.75862068965517" width="9.203448275862069" height="9.203448275862069"></rect><rect shape-rendering="optimizeSpeed" fill="#000" x="73.72413793103448" y="164.75862068965517" width="9.203448275862069" height="9.203448275862069"></rect><rect shape-rendering="optimizeSpeed" fill="#000" x="82.82758620689656" y="164.75862068965517" width="9.203448275862069" height="9.203448275862069"></rect><rect shape-rendering="optimizeSpeed" fill="#000" x="101.0344827586207" y="164.75862068965517" width="9.203448275862069" height="9.203448275862069"></rect><rect shape-rendering="optimizeSpeed" fill="#000" x="110.13793103448276" y="164.75862068965517" width="9.203448275862069" height="9.203448275862069"></rect><rect shape-rendering="optimizeSpeed" fill="#000" x="119.24137931034483" y="164.75862068965517" width="9.203448275862069" height="9.203448275862069"></rect><rect shape-rendering="optimizeSpeed" fill="#000" x="128.34482758620692" y="164.75862068965517" width="9.203448275862069" height="9.203448275862069"></rect><rect shape-rendering="optimizeSpeed" fill="#000" x="155.6551724137931" y="164.75862068965517" width="9.203448275862069" height="9.203448275862069"></rect><rect shape-rendering="optimizeSpeed" fill="#000" x="164.75862068965517" y="164.75862068965517" width="9.203448275862069" height="9.203448275862069"></rect><rect shape-rendering="optimizeSpeed" fill="#000" x="182.96551724137933" y="164.75862068965517" width="9.203448275862069" height="9.203448275862069"></rect><rect shape-rendering="optimizeSpeed" fill="#000" x="192.0689655172414" y="164.75862068965517" width="9.203448275862069" height="9.203448275862069"></rect><rect shape-rendering="optimizeSpeed" fill="#000" x="201.17241379310346" y="164.75862068965517" width="9.203448275862069" height="9.203448275862069"></rect><rect shape-rendering="optimizeSpeed" fill="#000" x="210.27586206896552" y="164.75862068965517" width="9.203448275862069" height="9.203448275862069"></rect><rect shape-rendering="optimizeSpeed" fill="#000" x="219.3793103448276" y="164.75862068965517" width="9.203448275862069" height="9.203448275862069"></rect><rect shape-rendering="optimizeSpeed" fill="#000" x="246.6896551724138" y="164.75862068965517" width="9.203448275862069" height="9.203448275862069"></rect><rect shape-rendering="optimizeSpeed" fill="#000" x="264.8965517241379" y="164.75862068965517" width="9.203448275862069" height="9.203448275862069"></rect><rect shape-rendering="optimizeSpeed" fill="#000" x="10" y="173.86206896551724" width="9.203448275862069" height="9.203448275862069"></rect><rect shape-rendering="optimizeSpeed" fill="#000" x="28.20689655172414" y="173.86206896551724" width="9.203448275862069" height="9.203448275862069"></rect><rect shape-rendering="optimizeSpeed" fill="#000" x="46.41379310344828" y="173.86206896551724" width="9.203448275862069" height="9.203448275862069"></rect><rect shape-rendering="optimizeSpeed" fill="#000" x="55.51724137931035" y="173.86206896551724" width="9.203448275862069" height="9.203448275862069"></rect><rect shape-rendering="optimizeSpeed" fill="#000" x="64.62068965517241" y="173.86206896551724" width="9.203448275862069" height="9.203448275862069"></rect><rect shape-rendering="optimizeSpeed" fill="#000" x="73.72413793103448" y="173.86206896551724" width="9.203448275862069" height="9.203448275862069"></rect><rect shape-rendering="optimizeSpeed" fill="#000" x="91.93103448275862" y="173.86206896551724" width="9.203448275862069" height="9.203448275862069"></rect><rect shape-rendering="optimizeSpeed" fill="#000" x="110.13793103448276" y="173.86206896551724" width="9.203448275862069" height="9.203448275862069"></rect><rect shape-rendering="optimizeSpeed" fill="#000" x="119.24137931034483" y="173.86206896551724" width="9.203448275862069" height="9.203448275862069"></rect><rect shape-rendering="optimizeSpeed" fill="#000" x="137.44827586206895" y="173.86206896551724" width="9.203448275862069" height="9.203448275862069"></rect><rect shape-rendering="optimizeSpeed" fill="#000" x="155.6551724137931" y="173.86206896551724" width="9.203448275862069" height="9.203448275862069"></rect><rect shape-rendering="optimizeSpeed" fill="#000" x="219.3793103448276" y="173.86206896551724" width="9.203448275862069" height="9.203448275862069"></rect><rect shape-rendering="optimizeSpeed" fill="#000" x="237.58620689655174" y="173.86206896551724" width="9.203448275862069" height="9.203448275862069"></rect><rect shape-rendering="optimizeSpeed" fill="#000" x="255.79310344827587" y="173.86206896551724" width="9.203448275862069" height="9.203448275862069"></rect><rect shape-rendering="optimizeSpeed" fill="#000" x="264.8965517241379" y="173.86206896551724" width="9.203448275862069" height="9.203448275862069"></rect><rect shape-rendering="optimizeSpeed" fill="#000" x="19.10344827586207" y="182.96551724137933" width="9.203448275862069" height="9.203448275862069"></rect><rect shape-rendering="optimizeSpeed" fill="#000" x="28.20689655172414" y="182.96551724137933" width="9.203448275862069" height="9.203448275862069"></rect><rect shape-rendering="optimizeSpeed" fill="#000" x="37.310344827586206" y="182.96551724137933" width="9.203448275862069" height="9.203448275862069"></rect><rect shape-rendering="optimizeSpeed" fill="#000" x="46.41379310344828" y="182.96551724137933" width="9.203448275862069" height="9.203448275862069"></rect><rect shape-rendering="optimizeSpeed" fill="#000" x="73.72413793103448" y="182.96551724137933" width="9.203448275862069" height="9.203448275862069"></rect><rect shape-rendering="optimizeSpeed" fill="#000" x="82.82758620689656" y="182.96551724137933" width="9.203448275862069" height="9.203448275862069"></rect><rect shape-rendering="optimizeSpeed" fill="#000" x="119.24137931034483" y="182.96551724137933" width="9.203448275862069" height="9.203448275862069"></rect><rect shape-rendering="optimizeSpeed" fill="#000" x="128.34482758620692" y="182.96551724137933" width="9.203448275862069" height="9.203448275862069"></rect><rect shape-rendering="optimizeSpeed" fill="#000" x="137.44827586206895" y="182.96551724137933" width="9.203448275862069" height="9.203448275862069"></rect><rect shape-rendering="optimizeSpeed" fill="#000" x="146.55172413793105" y="182.96551724137933" width="9.203448275862069" height="9.203448275862069"></rect><rect shape-rendering="optimizeSpeed" fill="#000" x="155.6551724137931" y="182.96551724137933" width="9.203448275862069" height="9.203448275862069"></rect><rect shape-rendering="optimizeSpeed" fill="#000" x="164.75862068965517" y="182.96551724137933" width="9.203448275862069" height="9.203448275862069"></rect><rect shape-rendering="optimizeSpeed" fill="#000" x="173.86206896551724" y="182.96551724137933" width="9.203448275862069" height="9.203448275862069"></rect><rect shape-rendering="optimizeSpeed" fill="#000" x="182.96551724137933" y="182.96551724137933" width="9.203448275862069" height="9.203448275862069"></rect><rect shape-rendering="optimizeSpeed" fill="#000" x="192.0689655172414" y="182.96551724137933" width="9.203448275862069" height="9.203448275862069"></rect><rect shape-rendering="optimizeSpeed" fill="#000" x="237.58620689655174" y="182.96551724137933" width="9.203448275862069" height="9.203448275862069"></rect><rect shape-rendering="optimizeSpeed" fill="#000" x="255.79310344827587" y="182.96551724137933" width="9.203448275862069" height="9.203448275862069"></rect><rect shape-rendering="optimizeSpeed" fill="#000" x="10" y="192.0689655172414" width="9.203448275862069" height="9.203448275862069"></rect><rect shape-rendering="optimizeSpeed" fill="#000" x="28.20689655172414" y="192.0689655172414" width="9.203448275862069" height="9.203448275862069"></rect><rect shape-rendering="optimizeSpeed" fill="#000" x="55.51724137931035" y="192.0689655172414" width="9.203448275862069" height="9.203448275862069"></rect><rect shape-rendering="optimizeSpeed" fill="#000" x="64.62068965517241" y="192.0689655172414" width="9.203448275862069" height="9.203448275862069"></rect><rect shape-rendering="optimizeSpeed" fill="#000" x="73.72413793103448" y="192.0689655172414" width="9.203448275862069" height="9.203448275862069"></rect><rect shape-rendering="optimizeSpeed" fill="#000" x="91.93103448275862" y="192.0689655172414" width="9.203448275862069" height="9.203448275862069"></rect><rect shape-rendering="optimizeSpeed" fill="#000" x="110.13793103448276" y="192.0689655172414" width="9.203448275862069" height="9.203448275862069"></rect><rect shape-rendering="optimizeSpeed" fill="#000" x="137.44827586206895" y="192.0689655172414" width="9.203448275862069" height="9.203448275862069"></rect><rect shape-rendering="optimizeSpeed" fill="#000" x="164.75862068965517" y="192.0689655172414" width="9.203448275862069" height="9.203448275862069"></rect><rect shape-rendering="optimizeSpeed" fill="#000" x="182.96551724137933" y="192.0689655172414" width="9.203448275862069" height="9.203448275862069"></rect><rect shape-rendering="optimizeSpeed" fill="#000" x="192.0689655172414" y="192.0689655172414" width="9.203448275862069" height="9.203448275862069"></rect><rect shape-rendering="optimizeSpeed" fill="#000" x="201.17241379310346" y="192.0689655172414" width="9.203448275862069" height="9.203448275862069"></rect><rect shape-rendering="optimizeSpeed" fill="#000" x="210.27586206896552" y="192.0689655172414" width="9.203448275862069" height="9.203448275862069"></rect><rect shape-rendering="optimizeSpeed" fill="#000" x="219.3793103448276" y="192.0689655172414" width="9.203448275862069" height="9.203448275862069"></rect><rect shape-rendering="optimizeSpeed" fill="#000" x="228.48275862068965" y="192.0689655172414" width="9.203448275862069" height="9.203448275862069"></rect><rect shape-rendering="optimizeSpeed" fill="#000" x="82.82758620689656" y="201.17241379310346" width="9.203448275862069" height="9.203448275862069"></rect><rect shape-rendering="optimizeSpeed" fill="#000" x="110.13793103448276" y="201.17241379310346" width="9.203448275862069" height="9.203448275862069"></rect><rect shape-rendering="optimizeSpeed" fill="#000" x="137.44827586206895" y="201.17241379310346" width="9.203448275862069" height="9.203448275862069"></rect><rect shape-rendering="optimizeSpeed" fill="#000" x="155.6551724137931" y="201.17241379310346" width="9.203448275862069" height="9.203448275862069"></rect><rect shape-rendering="optimizeSpeed" fill="#000" x="182.96551724137933" y="201.17241379310346" width="9.203448275862069" height="9.203448275862069"></rect><rect shape-rendering="optimizeSpeed" fill="#000" x="192.0689655172414" y="201.17241379310346" width="9.203448275862069" height="9.203448275862069"></rect><rect shape-rendering="optimizeSpeed" fill="#000" x="228.48275862068965" y="201.17241379310346" width="9.203448275862069" height="9.203448275862069"></rect><rect shape-rendering="optimizeSpeed" fill="#000" x="246.6896551724138" y="201.17241379310346" width="9.203448275862069" height="9.203448275862069"></rect><rect shape-rendering="optimizeSpeed" fill="#000" x="255.79310344827587" y="201.17241379310346" width="9.203448275862069" height="9.203448275862069"></rect><rect shape-rendering="optimizeSpeed" fill="#000" x="264.8965517241379" y="201.17241379310346" width="9.203448275862069" height="9.203448275862069"></rect><rect shape-rendering="optimizeSpeed" fill="#000" x="10" y="210.27586206896552" width="9.203448275862069" height="9.203448275862069"></rect><rect shape-rendering="optimizeSpeed" fill="#000" x="19.10344827586207" y="210.27586206896552" width="9.203448275862069" height="9.203448275862069"></rect><rect shape-rendering="optimizeSpeed" fill="#000" x="28.20689655172414" y="210.27586206896552" width="9.203448275862069" height="9.203448275862069"></rect><rect shape-rendering="optimizeSpeed" fill="#000" x="37.310344827586206" y="210.27586206896552" width="9.203448275862069" height="9.203448275862069"></rect><rect shape-rendering="optimizeSpeed" fill="#000" x="46.41379310344828" y="210.27586206896552" width="9.203448275862069" height="9.203448275862069"></rect><rect shape-rendering="optimizeSpeed" fill="#000" x="55.51724137931035" y="210.27586206896552" width="9.203448275862069" height="9.203448275862069"></rect><rect shape-rendering="optimizeSpeed" fill="#000" x="64.62068965517241" y="210.27586206896552" width="9.203448275862069" height="9.203448275862069"></rect><rect shape-rendering="optimizeSpeed" fill="#000" x="82.82758620689656" y="210.27586206896552" width="9.203448275862069" height="9.203448275862069"></rect><rect shape-rendering="optimizeSpeed" fill="#000" x="128.34482758620692" y="210.27586206896552" width="9.203448275862069" height="9.203448275862069"></rect><rect shape-rendering="optimizeSpeed" fill="#000" x="164.75862068965517" y="210.27586206896552" width="9.203448275862069" height="9.203448275862069"></rect><rect shape-rendering="optimizeSpeed" fill="#000" x="182.96551724137933" y="210.27586206896552" width="9.203448275862069" height="9.203448275862069"></rect><rect shape-rendering="optimizeSpeed" fill="#000" x="192.0689655172414" y="210.27586206896552" width="9.203448275862069" height="9.203448275862069"></rect><rect shape-rendering="optimizeSpeed" fill="#000" x="210.27586206896552" y="210.27586206896552" width="9.203448275862069" height="9.203448275862069"></rect><rect shape-rendering="optimizeSpeed" fill="#000" x="228.48275862068965" y="210.27586206896552" width="9.203448275862069" height="9.203448275862069"></rect><rect shape-rendering="optimizeSpeed" fill="#000" x="237.58620689655174" y="210.27586206896552" width="9.203448275862069" height="9.203448275862069"></rect><rect shape-rendering="optimizeSpeed" fill="#000" x="255.79310344827587" y="210.27586206896552" width="9.203448275862069" height="9.203448275862069"></rect><rect shape-rendering="optimizeSpeed" fill="#000" x="264.8965517241379" y="210.27586206896552" width="9.203448275862069" height="9.203448275862069"></rect><rect shape-rendering="optimizeSpeed" fill="#000" x="10" y="219.3793103448276" width="9.203448275862069" height="9.203448275862069"></rect><rect shape-rendering="optimizeSpeed" fill="#000" x="64.62068965517241" y="219.3793103448276" width="9.203448275862069" height="9.203448275862069"></rect><rect shape-rendering="optimizeSpeed" fill="#000" x="82.82758620689656" y="219.3793103448276" width="9.203448275862069" height="9.203448275862069"></rect><rect shape-rendering="optimizeSpeed" fill="#000" x="91.93103448275862" y="219.3793103448276" width="9.203448275862069" height="9.203448275862069"></rect><rect shape-rendering="optimizeSpeed" fill="#000" x="101.0344827586207" y="219.3793103448276" width="9.203448275862069" height="9.203448275862069"></rect><rect shape-rendering="optimizeSpeed" fill="#000" x="110.13793103448276" y="219.3793103448276" width="9.203448275862069" height="9.203448275862069"></rect><rect shape-rendering="optimizeSpeed" fill="#000" x="146.55172413793105" y="219.3793103448276" width="9.203448275862069" height="9.203448275862069"></rect><rect shape-rendering="optimizeSpeed" fill="#000" x="164.75862068965517" y="219.3793103448276" width="9.203448275862069" height="9.203448275862069"></rect><rect shape-rendering="optimizeSpeed" fill="#000" x="182.96551724137933" y="219.3793103448276" width="9.203448275862069" height="9.203448275862069"></rect><rect shape-rendering="optimizeSpeed" fill="#000" x="192.0689655172414" y="219.3793103448276" width="9.203448275862069" height="9.203448275862069"></rect><rect shape-rendering="optimizeSpeed" fill="#000" x="228.48275862068965" y="219.3793103448276" width="9.203448275862069" height="9.203448275862069"></rect><rect shape-rendering="optimizeSpeed" fill="#000" x="264.8965517241379" y="219.3793103448276" width="9.203448275862069" height="9.203448275862069"></rect><rect shape-rendering="optimizeSpeed" fill="#000" x="10" y="228.48275862068965" width="9.203448275862069" height="9.203448275862069"></rect><rect shape-rendering="optimizeSpeed" fill="#000" x="28.20689655172414" y="228.48275862068965" width="9.203448275862069" height="9.203448275862069"></rect><rect shape-rendering="optimizeSpeed" fill="#000" x="37.310344827586206" y="228.48275862068965" width="9.203448275862069" height="9.203448275862069"></rect><rect shape-rendering="optimizeSpeed" fill="#000" x="46.41379310344828" y="228.48275862068965" width="9.203448275862069" height="9.203448275862069"></rect><rect shape-rendering="optimizeSpeed" fill="#000" x="64.62068965517241" y="228.48275862068965" width="9.203448275862069" height="9.203448275862069"></rect><rect shape-rendering="optimizeSpeed" fill="#000" x="82.82758620689656" y="228.48275862068965" width="9.203448275862069" height="9.203448275862069"></rect><rect shape-rendering="optimizeSpeed" fill="#000" x="101.0344827586207" y="228.48275862068965" width="9.203448275862069" height="9.203448275862069"></rect><rect shape-rendering="optimizeSpeed" fill="#000" x="119.24137931034483" y="228.48275862068965" width="9.203448275862069" height="9.203448275862069"></rect><rect shape-rendering="optimizeSpeed" fill="#000" x="155.6551724137931" y="228.48275862068965" width="9.203448275862069" height="9.203448275862069"></rect><rect shape-rendering="optimizeSpeed" fill="#000" x="164.75862068965517" y="228.48275862068965" width="9.203448275862069" height="9.203448275862069"></rect><rect shape-rendering="optimizeSpeed" fill="#000" x="192.0689655172414" y="228.48275862068965" width="9.203448275862069" height="9.203448275862069"></rect><rect shape-rendering="optimizeSpeed" fill="#000" x="201.17241379310346" y="228.48275862068965" width="9.203448275862069" height="9.203448275862069"></rect><rect shape-rendering="optimizeSpeed" fill="#000" x="210.27586206896552" y="228.48275862068965" width="9.203448275862069" height="9.203448275862069"></rect><rect shape-rendering="optimizeSpeed" fill="#000" x="219.3793103448276" y="228.48275862068965" width="9.203448275862069" height="9.203448275862069"></rect><rect shape-rendering="optimizeSpeed" fill="#000" x="228.48275862068965" y="228.48275862068965" width="9.203448275862069" height="9.203448275862069"></rect><rect shape-rendering="optimizeSpeed" fill="#000" x="237.58620689655174" y="228.48275862068965" width="9.203448275862069" height="9.203448275862069"></rect><rect shape-rendering="optimizeSpeed" fill="#000" x="255.79310344827587" y="228.48275862068965" width="9.203448275862069" height="9.203448275862069"></rect><rect shape-rendering="optimizeSpeed" fill="#000" x="264.8965517241379" y="228.48275862068965" width="9.203448275862069" height="9.203448275862069"></rect><rect shape-rendering="optimizeSpeed" fill="#000" x="10" y="237.58620689655174" width="9.203448275862069" height="9.203448275862069"></rect><rect shape-rendering="optimizeSpeed" fill="#000" x="28.20689655172414" y="237.58620689655174" width="9.203448275862069" height="9.203448275862069"></rect><rect shape-rendering="optimizeSpeed" fill="#000" x="37.310344827586206" y="237.58620689655174" width="9.203448275862069" height="9.203448275862069"></rect><rect shape-rendering="optimizeSpeed" fill="#000" x="46.41379310344828" y="237.58620689655174" width="9.203448275862069" height="9.203448275862069"></rect><rect shape-rendering="optimizeSpeed" fill="#000" x="64.62068965517241" y="237.58620689655174" width="9.203448275862069" height="9.203448275862069"></rect><rect shape-rendering="optimizeSpeed" fill="#000" x="110.13793103448276" y="237.58620689655174" width="9.203448275862069" height="9.203448275862069"></rect><rect shape-rendering="optimizeSpeed" fill="#000" x="119.24137931034483" y="237.58620689655174" width="9.203448275862069" height="9.203448275862069"></rect><rect shape-rendering="optimizeSpeed" fill="#000" x="128.34482758620692" y="237.58620689655174" width="9.203448275862069" height="9.203448275862069"></rect><rect shape-rendering="optimizeSpeed" fill="#000" x="155.6551724137931" y="237.58620689655174" width="9.203448275862069" height="9.203448275862069"></rect><rect shape-rendering="optimizeSpeed" fill="#000" x="164.75862068965517" y="237.58620689655174" width="9.203448275862069" height="9.203448275862069"></rect><rect shape-rendering="optimizeSpeed" fill="#000" x="228.48275862068965" y="237.58620689655174" width="9.203448275862069" height="9.203448275862069"></rect><rect shape-rendering="optimizeSpeed" fill="#000" x="255.79310344827587" y="237.58620689655174" width="9.203448275862069" height="9.203448275862069"></rect><rect shape-rendering="optimizeSpeed" fill="#000" x="264.8965517241379" y="237.58620689655174" width="9.203448275862069" height="9.203448275862069"></rect><rect shape-rendering="optimizeSpeed" fill="#000" x="10" y="246.6896551724138" width="9.203448275862069" height="9.203448275862069"></rect><rect shape-rendering="optimizeSpeed" fill="#000" x="28.20689655172414" y="246.6896551724138" width="9.203448275862069" height="9.203448275862069"></rect><rect shape-rendering="optimizeSpeed" fill="#000" x="37.310344827586206" y="246.6896551724138" width="9.203448275862069" height="9.203448275862069"></rect><rect shape-rendering="optimizeSpeed" fill="#000" x="46.41379310344828" y="246.6896551724138" width="9.203448275862069" height="9.203448275862069"></rect><rect shape-rendering="optimizeSpeed" fill="#000" x="64.62068965517241" y="246.6896551724138" width="9.203448275862069" height="9.203448275862069"></rect><rect shape-rendering="optimizeSpeed" fill="#000" x="82.82758620689656" y="246.6896551724138" width="9.203448275862069" height="9.203448275862069"></rect><rect shape-rendering="optimizeSpeed" fill="#000" x="110.13793103448276" y="246.6896551724138" width="9.203448275862069" height="9.203448275862069"></rect><rect shape-rendering="optimizeSpeed" fill="#000" x="119.24137931034483" y="246.6896551724138" width="9.203448275862069" height="9.203448275862069"></rect><rect shape-rendering="optimizeSpeed" fill="#000" x="137.44827586206895" y="246.6896551724138" width="9.203448275862069" height="9.203448275862069"></rect><rect shape-rendering="optimizeSpeed" fill="#000" x="155.6551724137931" y="246.6896551724138" width="9.203448275862069" height="9.203448275862069"></rect><rect shape-rendering="optimizeSpeed" fill="#000" x="182.96551724137933" y="246.6896551724138" width="9.203448275862069" height="9.203448275862069"></rect><rect shape-rendering="optimizeSpeed" fill="#000" x="192.0689655172414" y="246.6896551724138" width="9.203448275862069" height="9.203448275862069"></rect><rect shape-rendering="optimizeSpeed" fill="#000" x="219.3793103448276" y="246.6896551724138" width="9.203448275862069" height="9.203448275862069"></rect><rect shape-rendering="optimizeSpeed" fill="#000" x="228.48275862068965" y="246.6896551724138" width="9.203448275862069" height="9.203448275862069"></rect><rect shape-rendering="optimizeSpeed" fill="#000" x="237.58620689655174" y="246.6896551724138" width="9.203448275862069" height="9.203448275862069"></rect><rect shape-rendering="optimizeSpeed" fill="#000" x="264.8965517241379" y="246.6896551724138" width="9.203448275862069" height="9.203448275862069"></rect><rect shape-rendering="optimizeSpeed" fill="#000" x="10" y="255.79310344827587" width="9.203448275862069" height="9.203448275862069"></rect><rect shape-rendering="optimizeSpeed" fill="#000" x="64.62068965517241" y="255.79310344827587" width="9.203448275862069" height="9.203448275862069"></rect><rect shape-rendering="optimizeSpeed" fill="#000" x="82.82758620689656" y="255.79310344827587" width="9.203448275862069" height="9.203448275862069"></rect><rect shape-rendering="optimizeSpeed" fill="#000" x="119.24137931034483" y="255.79310344827587" width="9.203448275862069" height="9.203448275862069"></rect><rect shape-rendering="optimizeSpeed" fill="#000" x="128.34482758620692" y="255.79310344827587" width="9.203448275862069" height="9.203448275862069"></rect><rect shape-rendering="optimizeSpeed" fill="#000" x="137.44827586206895" y="255.79310344827587" width="9.203448275862069" height="9.203448275862069"></rect><rect shape-rendering="optimizeSpeed" fill="#000" x="164.75862068965517" y="255.79310344827587" width="9.203448275862069" height="9.203448275862069"></rect><rect shape-rendering="optimizeSpeed" fill="#000" x="173.86206896551724" y="255.79310344827587" width="9.203448275862069" height="9.203448275862069"></rect><rect shape-rendering="optimizeSpeed" fill="#000" x="182.96551724137933" y="255.79310344827587" width="9.203448275862069" height="9.203448275862069"></rect><rect shape-rendering="optimizeSpeed" fill="#000" x="192.0689655172414" y="255.79310344827587" width="9.203448275862069" height="9.203448275862069"></rect><rect shape-rendering="optimizeSpeed" fill="#000" x="210.27586206896552" y="255.79310344827587" width="9.203448275862069" height="9.203448275862069"></rect><rect shape-rendering="optimizeSpeed" fill="#000" x="228.48275862068965" y="255.79310344827587" width="9.203448275862069" height="9.203448275862069"></rect><rect shape-rendering="optimizeSpeed" fill="#000" x="255.79310344827587" y="255.79310344827587" width="9.203448275862069" height="9.203448275862069"></rect><rect shape-rendering="optimizeSpeed" fill="#000" x="10" y="264.8965517241379" width="9.203448275862069" height="9.203448275862069"></rect><rect shape-rendering="optimizeSpeed" fill="#000" x="19.10344827586207" y="264.8965517241379" width="9.203448275862069" height="9.203448275862069"></rect><rect shape-rendering="optimizeSpeed" fill="#000" x="28.20689655172414" y="264.8965517241379" width="9.203448275862069" height="9.203448275862069"></rect><rect shape-rendering="optimizeSpeed" fill="#000" x="37.310344827586206" y="264.8965517241379" width="9.203448275862069" height="9.203448275862069"></rect><rect shape-rendering="optimizeSpeed" fill="#000" x="46.41379310344828" y="264.8965517241379" width="9.203448275862069" height="9.203448275862069"></rect><rect shape-rendering="optimizeSpeed" fill="#000" x="55.51724137931035" y="264.8965517241379" width="9.203448275862069" height="9.203448275862069"></rect><rect shape-rendering="optimizeSpeed" fill="#000" x="64.62068965517241" y="264.8965517241379" width="9.203448275862069" height="9.203448275862069"></rect><rect shape-rendering="optimizeSpeed" fill="#000" x="82.82758620689656" y="264.8965517241379" width="9.203448275862069" height="9.203448275862069"></rect><rect shape-rendering="optimizeSpeed" fill="#000" x="91.93103448275862" y="264.8965517241379" width="9.203448275862069" height="9.203448275862069"></rect><rect shape-rendering="optimizeSpeed" fill="#000" x="101.0344827586207" y="264.8965517241379" width="9.203448275862069" height="9.203448275862069"></rect><rect shape-rendering="optimizeSpeed" fill="#000" x="110.13793103448276" y="264.8965517241379" width="9.203448275862069" height="9.203448275862069"></rect><rect shape-rendering="optimizeSpeed" fill="#000" x="137.44827586206895" y="264.8965517241379" width="9.203448275862069" height="9.203448275862069"></rect><rect shape-rendering="optimizeSpeed" fill="#000" x="164.75862068965517" y="264.8965517241379" width="9.203448275862069" height="9.203448275862069"></rect><rect shape-rendering="optimizeSpeed" fill="#000" x="182.96551724137933" y="264.8965517241379" width="9.203448275862069" height="9.203448275862069"></rect><rect shape-rendering="optimizeSpeed" fill="#000" x="192.0689655172414" y="264.8965517241379" width="9.203448275862069" height="9.203448275862069"></rect><rect shape-rendering="optimizeSpeed" fill="#000" x="219.3793103448276" y="264.8965517241379" width="9.203448275862069" height="9.203448275862069"></rect><rect shape-rendering="optimizeSpeed" fill="#000" x="228.48275862068965" y="264.8965517241379" width="9.203448275862069" height="9.203448275862069"></rect><rect shape-rendering="optimizeSpeed" fill="#000" x="237.58620689655174" y="264.8965517241379" width="9.203448275862069" height="9.203448275862069"></rect><rect shape-rendering="optimizeSpeed" fill="#000" x="255.79310344827587" y="264.8965517241379" width="9.203448275862069" height="9.203448275862069"></rect><rect shape-rendering="optimizeSpeed" fill="#000" x="264.8965517241379" y="264.8965517241379" width="9.203448275862069" height="9.203448275862069"></rect></svg></g>
</svg>

                