<svg xmlns="http://www.w3.org/2000/svg" width="20" height="20"><path fill="#33A752" d="M20 13.9c.1.9-.1 2-.6 3-.8 1.6-2.2 2.6-4 2.9-1 .2-2 0-3 .1-.2 0-.2-.1-.2-.2v-2.3c0-.2.1-.3.3-.3h1.9c1.4 0 2.4-.8 2.7-2.1.1-.5.1-1 .1-1.6v-1c0-.2 0-.3.3-.3h2.3c.2 0 .3.1.3.3-.1.5-.1.9-.1 1.5z"/><path fill="#FABB04" d="M13.9 0c.9-.1 2 0 3 .6 1.9 1 2.9 2.6 3 4.8v2.1c0 .2-.1.3-.3.3h-2.1c-.2 0-.3 0-.3-.3V5.6c0-1.4-1.2-2.8-3-2.8h-1.7c-.2 0-.3-.1-.3-.3V.3c0-.2.1-.3.3-.3h1.4z"/><path fill="#4284F3" d="M6.1 20c-.9.1-2.1 0-3.1-.6-1.9-1-2.9-2.6-3-4.8v-2.1c0-.2.1-.3.3-.3h2.2c.2 0 .3.1.3.3v1.8c-.1 1.6 1.3 2.9 2.8 2.9h1.8c.3 0 .3.1.3.3v2.1c0 .3-.1.3-.3.3-.3.1-.7.1-1.3.1z"/><path fill="#E94335" d="M7.7.1c.1.1.1.2.1.2v2.1c0 .2 0 .3-.3.3H5.8c-1.7 0-3.1 1.3-3 3v1.7c0 .2 0 .3-.2.3H.2.1c.4-.1.8 0 1.1 0h1.3H.3c-.1 0-.2-.1-.2-.2V5.2v2.5C0 6-.2 4.2.9 2.6 2 .9 3.5.1 5.6 0h1.8c.1 0 .2 0 .3.1-.3.1-.6 0-.9 0H5.2h2.3c.1 0 .2 0 .2.2V.5c0-.2-.1-.3 0-.4z"/><path fill="#016CF1" d="M.1 14.9v-2.5 2.5zm7.5 5H5.1h2.5z"/><path fill="#E71200" d="M7.7.1v2.5h-.1v-2c0-.3-.1-.4-.4-.4-.7 0-1.4 0-2.1-.1h2.6zM.1 7.7V5.1h.1V7c0 .7 0 .7.7.7h1.8v.1C2.6 7.7.1 7.7.1 7.7z"/><path fill="#4284F3" d="M14.4 11.8H5.6c-.9 0-1.7-.8-1.7-1.7 0-.9.8-1.7 1.7-1.7h8.9c.9 0 1.7.8 1.7 1.7-.1.9-.8 1.7-1.8 1.7z"/></svg>