<?xml version="1.0" standalone="no"?><!DOCTYPE svg PUBLIC "-//W3C//DTD SVG 1.1//EN" "http://www.w3.org/Graphics/SVG/1.1/DTD/svg11.dtd"><svg t="1774619334185" class="icon" viewBox="0 0 1024 1024" version="1.1" xmlns="http://www.w3.org/2000/svg" p-id="4612" xmlns:xlink="http://www.w3.org/1999/xlink" width="200" height="200"><path d="M718.05238164 37.45783151H314.10010259a40.37799502 40.37799502 0 0 0-40.39125108 40.37799502v60.61338876a40.39787913 40.39787913 0 0 0 40.39125108 40.39787912h403.95227905a40.4310193 40.4310193 0 0 0 40.44427537-40.39787912v-60.61338876a40.42439126 40.42439126 0 0 0-40.44427537-40.37799502zM394.929001 387.61697078v558.74343064a40.39125108 40.39125108 0 0 0 40.35148287 40.39787912h161.58488844a40.40450716 40.40450716 0 0 0 40.40450716-40.39787912V387.57720257l100.9980118-168.33885708H293.897849L394.929001 387.61697078z m100.95824361 94.17776283a20.21550965 20.21550965 0 0 1 20.1889975-20.19562555 20.25527787 20.25527787 0 0 1 20.22213769 20.19562555v161.63128469a20.21550965 20.21550965 0 0 1-20.22213769 20.16248536 20.1691134 20.1691134 0 0 1-20.1889975-20.16248536v-161.63128469z" p-id="4613" fill="#e6e6e6"></path></svg>