<?xml version="1.0" standalone="no"?><!DOCTYPE svg PUBLIC "-//W3C//DTD SVG 1.1//EN" "http://www.w3.org/Graphics/SVG/1.1/DTD/svg11.dtd"><svg t="1774619439882" class="icon" viewBox="0 0 1024 1024" version="1.1" xmlns="http://www.w3.org/2000/svg" p-id="10528" xmlns:xlink="http://www.w3.org/1999/xlink" width="200" height="200"><path d="M736.29 173.732H299.099a17.037 17.037 0 0 0-16.825 17.125v67.972a16.878 16.878 0 0 0 16.825 16.949h437.193a16.878 16.878 0 0 0 16.808-16.949v-67.972a17.037 17.037 0 0 0-16.808-17.125z m-353.1 289.19v544.13A25.759 25.759 0 0 0 399.996 1024h235.36a25.759 25.759 0 0 0 16.825-16.949v-544.13l84.056-153.069h-437.14l84.056 153.07z m100.863 118.995a33.615 33.615 0 1 1 67.248 0v84.92a33.615 33.615 0 1 1-67.248 0v-84.92zM520.793 0.006a26.889 26.889 0 0 1 27.418 27.718v75.387a27.436 27.436 0 1 1-54.854 0V27.724A26.906 26.906 0 0 1 520.793 0.006z m254.675 43.608l-54.837 79.271a23.746 23.746 0 0 1-35.31 11.829 24.276 24.276 0 0 1-11.759-35.663l54.855-79.271a23.746 23.746 0 0 1 35.31-11.83 32.203 32.203 0 0 1 11.74 35.664z m-470.19 83.155l-54.855-79.271a25.158 25.158 0 0 1 11.759-35.663 24.523 24.523 0 0 1 35.31 12.005l54.854 79.271a25.158 25.158 0 0 1-11.74 35.664 24.54 24.54 0 0 1-35.31-12.006z" p-id="10529" fill="#ffa500"></path></svg>